HIERARCHY
ROOT root
{
	OFFSET	0	13.1	24.9
	CHANNELS 6  Xposition Yposition Zposition Xrotation Yrotation Zrotation
	JOINT spine_1
	{
		OFFSET	0	9.99999	0
		CHANNELS 3  Xrotation Yrotation Zrotation
		JOINT spine_2
		{
			OFFSET	0	112	-10
			CHANNELS 3  Xrotation Yrotation Zrotation
			JOINT spine_3
			{
				OFFSET	0	206.5	19.3
				CHANNELS 3  Xrotation Yrotation Zrotation
				JOINT spine_4
				{
					OFFSET	0	110.4	14.6
					CHANNELS 3  Xrotation Yrotation Zrotation
					JOINT neck_1
					{
						OFFSET	0	71.8	-50.3
						CHANNELS 3  Xrotation Yrotation Zrotation
						JOINT neck_2
						{
							OFFSET	0	86.2	-25.8
							CHANNELS 3  Xrotation Yrotation Zrotation
							JOINT head_ee
							{
								OFFSET	0	179.8	-8.7
								CHANNELS 3  Xrotation Yrotation Zrotation
								End Site
								{
									OFFSET	1	0	0
								}
							}
						}
					}
					JOINT left_clavicle
					{
						OFFSET	-43.2	22.4	-70.8
						CHANNELS 3  Xrotation Yrotation Zrotation
						JOINT left_shoulder
						{
							OFFSET	-93.9	-5.79999	48.7
							CHANNELS 3  Xrotation Yrotation Zrotation
							JOINT left_elbow
							{
								OFFSET	-291.4	-30.8	15.2
								CHANNELS 3  Xrotation Yrotation Zrotation
								JOINT left_lowarm_twist
								{
									OFFSET	-110.7	-3.89999	13.6
									CHANNELS 3  Xrotation Yrotation Zrotation
									JOINT left_hand
									{
										OFFSET	-110.7	-3.89999	13.6
										CHANNELS 3  Xrotation Yrotation Zrotation
										JOINT left_ee
										{
											OFFSET	-80.8	-5.10001	12.1
											CHANNELS 3  Xrotation Yrotation Zrotation
											End Site
											{
												OFFSET	1	0	0
											}
										}
									}
								}
							}
						}
					}
					JOINT right_clavicle
					{
						OFFSET	43.2	22.4	-70.8
						CHANNELS 3  Xrotation Yrotation Zrotation
						JOINT right_shoulder
						{
							OFFSET	93.9	-5.79999	48.7
							CHANNELS 3  Xrotation Yrotation Zrotation
							JOINT right_elbow
							{
								OFFSET	291.4	-30.8	15.2
								CHANNELS 3  Xrotation Yrotation Zrotation
								JOINT right_lowarm_twist
								{
									OFFSET	110.7	-3.89999	13.6
									CHANNELS 3  Xrotation Yrotation Zrotation
									JOINT right_hand
									{
										OFFSET	110.7	-3.89999	13.6
										CHANNELS 3  Xrotation Yrotation Zrotation
										JOINT right_ee
										{
											OFFSET	80.8	-5.10001	12.1
											CHANNELS 3  Xrotation Yrotation Zrotation
											End Site
											{
												OFFSET	1	0	0
											}
										}
									}
								}
							}
						}
					}
				}
			}
		}
	}
	JOINT left_hip
	{
		OFFSET	-82.8	-127.5	0.300001
		CHANNELS 3  Xrotation Yrotation Zrotation
		JOINT left_knee
		{
			OFFSET	-28.2	-396.7	2.2
			CHANNELS 3  Xrotation Yrotation Zrotation
			JOINT left_ankle
			{
				OFFSET	-11.7	-411.3	35.4
				CHANNELS 3  Xrotation Yrotation Zrotation
				JOINT left_toes
				{
					OFFSET	0	-60	-88.6
					CHANNELS 3  Xrotation Yrotation Zrotation
					JOINT left_foot_ee
					{
						OFFSET	-22.5	-16.5	-42.2
						CHANNELS 3  Xrotation Yrotation Zrotation
						End Site
						{
							OFFSET	1	0	0
						}
					}
				}
			}
		}
	}
	JOINT right_hip
	{
		OFFSET	82.8	-127.5	0.300001
		CHANNELS 3  Xrotation Yrotation Zrotation
		JOINT right_knee
		{
			OFFSET	28.2	-396.7	2.2
			CHANNELS 3  Xrotation Yrotation Zrotation
			JOINT right_ankle
			{
				OFFSET	11.7	-411.3	35.4
				CHANNELS 3  Xrotation Yrotation Zrotation
				JOINT right_toes
				{
					OFFSET	0	-60	-88.6
					CHANNELS 3  Xrotation Yrotation Zrotation
					JOINT right_foot_ee
					{
						OFFSET	22.5	-16.5	-42.2
						CHANNELS 3  Xrotation Yrotation Zrotation
						End Site
						{
							OFFSET	1	0	0
						}
					}
				}
			}
		}
	}
}
MOTION
Frames: 13
Frame Time: 0.02
3493.94 779.466 -540.707 -10.6139 68.177 10.7016 -0.562177 0.00377028 -0.133502 -0.562167 0.0122577 -0.132991 -0.562191 0.0411841 -0.127046 -0.562213 0.0206027 -0.131956 2.60359 16.8542 2.75775 3.32937 27.2398 4.1488 -0.0 0.0 -0.0 7.1284 -1.48642 13.8458 -20.3475 -16.4475 64.3151 0.292375 -8.24126 0.0210636 15.9241 0.283682 -2.00785 2.22792 -1.28056 14.5457 -0.0 0.0 -0.0 9.55068 -5.80697 -18.3897 -17.5815 22.0352 -52.2939 1.04417 27.3496 -0.25406 15.6656 -0.283561 1.97484 2.34241 14.9952 -9.37891 0.0 0.0 0.0 15.6749 32.6478 -9.90332 -15.2436 0.321959 2.31027 4.92333 -23.6432 -0.836968 22.72 -0.0 -0.0 -0.0 0.0 -0.0 2.54078 -6.13475 -0.571433 -5.48624 -0.186691 -0.820959 16.8289 -14.8191 2.34981 -1.61547 0.0 0.0 0.0 0.0 0.0 
3486.14 779.212 -532.245 -9.79357 68.9718 9.97014 -0.75012 -0.0682824 -0.219447 -0.750095 -0.0541801 -0.223347 -0.74986 -0.00302067 -0.229805 -0.749931 -0.039276 -0.226444 3.36439 16.4385 1.61242 4.16152 27.288 2.70939 -0.0 0.0 -0.0 8.05211 -2.173 15.7179 -19.684 -15.9094 64.2419 0.231146 -6.53223 0.0131906 16.1392 0.283668 -2.03533 2.25196 -0.377969 15.0757 -0.0 0.0 -0.0 9.30442 -6.67438 -17.8481 -16.9829 21.734 -52.043 1.0172 26.7426 -0.241799 15.6448 -0.283545 1.97217 2.49922 15.7579 -10.0897 0.0 0.0 0.0 13.567 34.0615 -8.36886 -14.5349 0.320696 2.20153 8.00568 -22.6213 -1.3311 21.5195 -0.0 -0.0 -0.0 0.0 -0.0 2.7951 -5.4777 -0.265657 -5.94083 -0.198615 -0.889703 17.1382 -20.9853 2.43823 -0.951356 0.0 0.0 0.0 0.0 0.0 
3473.87 777.118 -525.382 -10.9583 70.6133 10.2748 -0.884051 -0.167296 -0.281654 -0.884019 -0.149035 -0.291728 -0.88321 -0.0795041 -0.317798 -0.883328 -0.128696 -0.301254 2.57269 15.901 1.09535 3.30314 26.9644 2.24572 -0.0 0.0 -0.0 8.24655 -2.15645 16.1151 -16.6305 -17.2017 63.3302 0.261005 -7.36731 0.0168037 15.9894 0.283688 -2.01619 2.32035 0.508307 15.9035 -0.0 0.0 -0.0 8.83199 -6.61996 -16.9481 -17.7987 21.7872 -51.6571 1.03129 27.0606 -0.248175 15.0762 -0.282731 1.89956 2.5877 16.1122 -10.5244 0.0 0.0 0.0 12.5054 33.472 -6.73589 -15.3331 0.322023 2.324 9.25094 -24.5064 -1.56168 21.7267 -0.0 -0.0 -0.0 0.0 -0.0 3.13217 -2.69114 2.13689 -8.1436 -0.248651 -1.22401 16.6686 -21.068 2.37661 0.126698 -0.0 -0.0 0.0 0.0 0.0 
3459.94 775.145 -519.17 -8.81415 69.8625 8.05318 -0.927886 -0.153811 -0.315886 -0.92784 -0.133399 -0.325033 -0.927024 -0.0565034 -0.346769 -0.927175 -0.11056 -0.333493 3.18405 15.8888 -0.0741551 4.04054 27.794 0.803165 -0.0 0.0 -0.0 8.60433 -3.17404 16.8616 -15.0151 -17.6103 63.1816 0.240673 -6.79901 0.0142966 16.0231 0.283688 -2.02049 2.3745 1.23874 16.5679 -0.0 0.0 -0.0 8.62595 -5.51473 -16.6205 -18.5969 21.2993 -51.7397 0.987763 26.0724 -0.228706 14.5681 -0.281393 1.83468 2.67113 16.1917 -11.054 0.0 0.0 0.0 10.344 33.9964 -5.48827 -15.2355 0.321952 2.30901 12.2945 -23.7076 -2.03078 22.2512 -0.0 -0.0 -0.0 0.0 -0.0 3.31262 -3.0591 3.22315 -9.56214 -0.274053 -1.4402 16.9619 -24.672 2.45803 0.0819862 -0.0 -0.0 0.0 0.0 0.0 
3448.48 774.795 -519.335 -6.05288 67.4373 5.21803 -0.877993 -0.13419 -0.314949 -0.877945 -0.113877 -0.322849 -0.877247 -0.038275 -0.340198 -0.877397 -0.0915223 -0.329884 2.64844 16.5601 3.09546 3.32687 26.4224 4.50986 -0.0 0.0 -0.0 8.23848 -3.31824 16.1066 -12.8188 -18.3052 62.7741 0.253448 -7.15625 0.0158484 16.0731 0.283683 -2.02688 2.20581 0.916226 15.2703 -0.0 0.0 -0.0 8.60814 -6.17554 -16.5486 -19.0671 21.3194 -52.0079 0.998274 26.3126 -0.233345 14.1933 -0.280038 1.78682 2.62031 14.9662 -11.2841 0.0 0.0 0.0 7.93648 32.8562 -5.06327 -14.6976 0.321105 2.22649 10.3198 -23.3485 -1.71281 21.8716 -0.0 -0.0 -0.0 0.0 -0.0 4.19781 -3.89975 4.11451 -9.38351 -0.271148 -1.41294 17.7976 -26.9627 2.60536 0.30756 -0.0 -0.0 0.0 0.0 0.0 
3439.93 774.872 -513.269 -5.4825 66.1343 4.43171 -0.863858 -0.0986473 -0.299156 -0.863811 -0.0794114 -0.304827 -0.863342 -0.00882739 -0.314877 -0.863476 -0.0584453 -0.309531 2.84014 16.9175 3.06113 3.56678 27.0334 4.45389 -0.0 0.0 -0.0 8.32193 -3.36149 16.279 -12.1907 -18.6372 63.2094 0.255686 -7.21878 0.0161285 15.9187 0.283681 -2.00715 2.22264 1.15013 15.4789 -0.0 0.0 -0.0 8.71358 -6.04685 -16.7578 -19.6392 20.9582 -51.3 0.987098 26.0572 -0.228414 14.316 -0.280516 1.80249 2.6128 15.1436 -11.1499 0.0 0.0 0.0 7.89936 33.2477 -4.78904 -16.9056 0.319644 2.56523 12.234 -23.7783 -2.02285 22.2005 -0.0 -0.0 -0.0 0.0 -0.0 4.70126 -3.10632 5.09899 -9.56095 -0.274034 -1.44002 17.1682 -27.0734 2.521 0.189408 -0.0 -0.0 0.0 0.0 0.0 
3430.37 774.464 -513.297 -4.63342 67.032 3.52798 -0.889826 -0.283334 -0.474348 -0.889736 -0.252576 -0.491416 -0.887427 -0.135378 -0.535683 -0.887762 -0.218279 -0.507581 0.985329 16.6609 6.27453 1.49204 24.381 8.26709 -0.0 0.0 -0.0 8.1305 -3.07747 15.8833 -11.2079 -19.0515 62.5208 0.290684 -8.19425 0.0208219 15.6254 0.283529 -1.9697 2.15275 0.60808 14.7817 -0.0 0.0 -0.0 8.79531 -7.05644 -16.8493 -21.2014 20.2944 -51.1345 0.993543 26.2046 -0.231252 14.6898 -0.281766 1.85022 2.61445 14.8466 -11.3 0.0 0.0 0.0 7.00467 33.0898 -4.58993 -17.6791 0.316045 2.68387 10.9675 -23.7994 -1.824 21.3882 -0.0 -0.0 -0.0 0.0 -0.0 7.09312 -1.9734 6.14613 -15.3211 -0.322015 -2.32214 17.235 -29.2899 2.56755 1.48587 -0.0 -0.0 0.0 0.0 0.0 
3416.77 775.275 -514.738 -4.06761 65.0748 2.55859 -0.927224 -0.344113 -0.280824 -0.927239 -0.325547 -0.302151 -0.925467 -0.248866 -0.367888 -0.925527 -0.303843 -0.323968 1.02891 17.6106 7.64827 1.58833 24.9192 9.82145 -0.0 0.0 -0.0 7.97751 -2.99037 15.5688 -10.4767 -19.3484 62.2193 0.291492 -8.2167 0.0209371 15.1884 0.282949 -1.91389 2.18894 0.284901 14.9037 -0.0 0.0 -0.0 8.81278 -6.6179 -16.9116 -22.1344 19.8251 -50.7402 1.00265 26.4123 -0.235289 14.9607 -0.282477 1.88481 2.61477 14.6074 -11.4137 0.0 0.0 0.0 6.22932 33.0677 -4.31482 -18.3145 0.31189 2.78126 10.2644 -23.9665 -1.71529 22.0915 -0.0 -0.0 -0.0 0.0 -0.0 8.15014 -1.28121 6.69568 -16.8906 -0.319698 -2.56294 16.9264 -30.321 2.54323 1.52594 -0.0 -0.0 0.0 0.0 0.0 
3412.08 777.355 -517.633 -2.26567 64.5869 0.906202 -1.1809 -0.30552 -0.335598 -1.18088 -0.283546 -0.354359 -1.17905 -0.194343 -0.410121 -1.17919 -0.256674 -0.374282 -0.681325 17.3473 9.63197 -0.182751 23.3528 12.1249 -0.0 0.0 -0.0 7.67751 -1.60425 14.9533 -9.64327 -19.6953 61.3979 0.366245 -10.2834 0.0329552 15.1498 0.282877 -1.90896 2.18809 -0.169486 14.7167 -0.0 0.0 -0.0 9.08235 -6.79508 -17.4139 -22.7053 18.8522 -50.9712 0.960348 25.4413 -0.216793 15.1708 -0.282916 1.91163 2.55853 13.8801 -11.3665 0.0 0.0 0.0 5.20143 32.8844 -4.47932 -18.3439 0.311672 2.78577 9.85454 -23.8925 -1.64832 22.4091 -0.0 -0.0 -0.0 0.0 -0.0 9.4892 -0.828719 6.5738 -19.6405 -0.299743 -2.98435 16.5055 -30.1365 2.48044 2.18703 -0.0 -0.0 0.0 0.0 0.0 
3401.05 776.89 -519.659 -1.54481 63.3261 0.278385 -1.35171 -0.112949 -0.514576 -1.35156 -0.0799765 -0.52072 -1.35069 0.0436407 -0.525015 -1.35108 -0.0398222 -0.525319 -0.0116382 17.8326 9.91697 0.535956 23.7662 12.4005 -0.0 0.0 -0.0 7.67335 -2.67304 14.9465 -8.94342 -19.8977 61.2747 0.35946 -10.0968 0.0317549 14.9031 0.28234 -1.87746 2.18364 -0.243463 14.6564 -0.0 0.0 -0.0 8.90288 -7.40604 -17.0289 -23.7672 18.8118 -50.7121 0.942334 25.023 -0.209113 15.2244 -0.283013 1.91849 2.49473 13.8904 -10.9254 0.0 0.0 0.0 4.47399 32.8287 -4.37577 -18.991 0.30628 2.88491 9.44446 -23.2097 -1.57094 22.1105 -0.0 -0.0 -0.0 0.0 -0.0 10.6013 -0.517676 6.63041 -21.3207 -0.277606 -3.2412 16.6009 -28.7837 2.47023 2.20195 -0.0 -0.0 0.0 0.0 0.0 
3396.75 783.441 -521.239 1.20194 62.6357 -1.71707 -1.51449 0.0160176 -0.627664 -1.51427 0.0559242 -0.625373 -1.51473 0.201908 -0.594519 -1.51521 0.105483 -0.618944 -1.40783 17.2638 10.5512 -0.912467 22.694 13.1624 -0.0 0.0 -0.0 7.45221 -2.40691 14.4969 -7.90322 -20.5032 60.4844 0.497605 -13.8475 0.0604263 14.5913 0.281467 -1.83764 1.92745 -1.35075 12.4448 -0.0 0.0 -0.0 8.87717 -7.1108 -17.0009 -24.056 17.4011 -51.7737 0.87786 23.5023 -0.182617 16.6794 -0.283179 2.10432 2.24014 12.6035 -9.77282 0.0 0.0 0.0 2.72944 32.8945 -4.54837 -17.9034 0.314702 2.71825 9.57166 -22.7348 -1.58341 22.0914 -0.0 -0.0 -0.0 0.0 -0.0 12.697 -0.295317 5.93416 -23.1102 -0.245753 -3.51395 16.5857 -28.6095 2.4652 3.0335 -0.0 -0.0 0.0 0.0 0.0 
3394.59 785.373 -525.165 2.97555 62.3538 -2.87652 -1.42266 -0.0134679 -0.585589 -1.42247 0.0238213 -0.585259 -1.42257 0.160338 -0.563372 -1.42301 0.0693533 -0.581624 -3.56543 16.4073 11.5991 -3.11466 21.0232 14.3653 -0.0 0.0 -0.0 7.3446 -0.33801 14.2787 -7.33235 -21.5109 58.9279 0.652398 -17.9098 0.102805 13.7191 0.277875 -1.72629 1.84363 -1.37257 11.8609 -0.0 0.0 -0.0 10.0071 -8.27973 -19.0524 -24.4241 16.9198 -50.1286 0.716602 19.544 -0.12342 15.938 -0.283684 2.00962 2.08016 11.0364 -9.3804 0.0 0.0 0.0 0.774253 31.3394 -4.76087 -16.9537 0.319467 2.57262 9.64582 -23.0724 -1.6008 21.9117 -0.0 -0.0 -0.0 0.0 -0.0 13.9294 0.504052 5.06228 -25.0506 -0.201607 -3.80842 17.5596 -22.6534 2.5128 2.87183 -0.0 -0.0 0.0 0.0 0.0 
3382.94 785.525 -530.345 3.72485 62.9019 -3.15282 -1.42519 -0.23895 -0.672778 -1.42496 -0.195656 -0.686618 -1.42233 -0.0292838 -0.713349 -1.42301 -0.141574 -0.699773 -5.62619 15.1882 10.7852 -5.29188 20.0618 13.5865 -0.0 0.0 -0.0 7.10332 1.33541 13.7908 -6.6387 -21.84 57.552 0.872537 -23.3752 0.1805 13.2913 0.275493 -1.6717 1.65358 -2.90442 9.93474 -0.0 0.0 -0.0 10.495 -9.70666 -19.8234 -25.2291 15.9058 -49.3309 0.592515 16.3579 -0.0851612 16.0242 -0.283688 2.02064 1.85438 9.60668 -8.46673 0.0 0.0 0.0 -0.383744 31.0099 -5.343 -15.4686 0.322078 2.34479 9.62865 -23.3035 -1.60194 21.6829 -0.0 -0.0 -0.0 0.0 -0.0 15.793 0.830056 3.32829 -26.4279 -0.164228 -4.01649 18.2975 -19.3661 2.57447 3.35106 -0.0 -0.0 0.0 0.0 0.0 
